<svg width="34" height="37" viewBox="0 0 34 37" fill="none" xmlns="http://www.w3.org/2000/svg">
<path opacity="0.979" fill-rule="evenodd" clip-rule="evenodd" d="M14.5288 0.00793585C16.1341 -0.0132211 17.7389 0.00793585 19.343 0.0712801C20.5863 0.288551 21.7265 0.752991 22.7636 1.46485C23.1225 1.99276 23.5659 2.43617 24.0938 2.79508C26.0219 5.9286 26.8243 9.34919 26.5009 13.0569C26.1022 15.3644 25.9755 17.6871 26.1208 20.0247C26.2352 20.9349 26.4464 21.8217 26.7543 22.6852C26.9044 22.9516 27.1156 23.1628 27.3877 23.3186C29.4735 23.7364 31.0993 24.8344 32.2652 26.6125C32.9659 27.8887 33.4937 29.24 33.8488 30.6666C34.1041 32.0966 33.703 33.3002 32.6453 34.2772C31.1044 35.2838 29.4151 35.9173 27.5778 36.1775C26.6575 36.3934 25.7285 36.5624 24.7906 36.6843C19.5963 37.1052 14.402 37.1052 9.20792 36.6843C7.13428 36.4192 5.10727 35.9547 3.12687 35.2907C2.39221 34.902 1.67426 34.4798 0.973168 34.0238C0.0698786 32.9654 -0.204529 31.7619 0.149692 30.4132C0.7374 27.9471 1.98313 25.899 3.887 24.2688C4.76369 23.7883 5.69282 23.4504 6.67415 23.2553C6.91207 23.0598 7.1021 22.8276 7.24425 22.5585C7.67499 21.0932 7.90721 19.5941 7.94104 18.061C7.85299 16.2974 7.66295 14.5449 7.37094 12.8035C7.10793 9.12596 7.95244 5.74756 9.90471 2.66839C10.8703 1.68757 11.9894 0.906284 13.262 0.324657C13.7222 0.305781 14.1445 0.200249 14.5288 0.00793585ZM13.1353 7.48256C13.4427 7.48547 13.7383 7.54882 14.0221 7.67259C17.1248 9.24505 20.2075 10.8497 23.2703 12.4868C23.397 12.5713 23.5237 12.5713 23.6504 12.4868C23.8826 12.2545 24.115 12.0222 24.3472 11.79C24.8038 12.9388 24.6983 14.0368 24.0305 15.0839C23.7886 15.1913 23.5353 15.2336 23.2703 15.2106C23.2804 15.5616 23.217 15.8994 23.0803 16.2241C22.7084 16.8414 22.3705 17.4749 22.0668 18.1244C21.6362 18.6044 21.235 19.1112 20.8633 19.6447C18.2076 22.2074 15.5895 22.1651 13.0086 19.518C12.1405 18.3733 11.4015 17.1486 10.7915 15.844C10.7289 15.637 10.7079 15.4258 10.7282 15.2106C10.2446 15.2959 9.8857 15.1271 9.65133 14.7038C9.40163 13.9596 9.31713 13.1995 9.39795 12.4234C9.45319 11.9733 9.70657 11.7199 10.1581 11.6633C10.321 10.6254 10.6588 9.65425 11.1716 8.74944C11.7043 8.11499 12.3589 7.69273 13.1353 7.48256ZM12.3751 21.1649C13.1222 21.7515 13.9245 22.2793 14.7822 22.7485C17.3641 23.6426 19.6023 23.1147 21.4967 21.1649C21.7946 22.0379 22.3435 22.6924 23.1437 23.1286C23.0402 23.3174 22.9346 23.5074 22.8269 23.6987C20.8758 25.629 18.9121 27.5294 16.9359 29.3997C14.7203 27.4584 12.6509 25.3681 10.7282 23.1286C11.4335 22.8299 11.9612 22.3443 12.3118 21.6717C12.3739 21.5079 12.395 21.3389 12.3751 21.1649ZM24.2839 27.246C24.9187 27.2249 25.5521 27.2461 26.1842 27.3093C26.2862 27.911 26.3495 28.5232 26.3742 29.1463C26.9759 29.2483 27.5881 29.3116 28.2112 29.3363C28.2745 29.3997 28.3379 29.463 28.4012 29.5264C28.5031 30.1916 28.4819 30.8462 28.3379 31.49C27.6635 31.5532 26.9879 31.5744 26.3109 31.5534C26.3319 32.2304 26.3107 32.906 26.2475 33.5804C25.5719 33.7493 24.8961 33.7493 24.2205 33.5804C24.1573 32.906 24.1361 32.2304 24.1572 31.5534C23.4801 31.5744 22.8045 31.5532 22.1301 31.49C21.9613 30.7721 21.9613 30.0543 22.1301 29.3363C22.8045 29.2731 23.4801 29.252 24.1572 29.273C24.1214 28.5854 24.1636 27.9098 24.2839 27.246Z" fill="white"/>
</svg>
