<svg width="71" height="72" viewBox="0 0 71 72" fill="none" xmlns="http://www.w3.org/2000/svg">
<circle cx="35.0191" cy="36.0653" r="35.0191" fill="#FB7F39"/>
<path d="M70 32C70.2811 34.7192 70.2984 37.0147 70 40C69.4353 45.6483 67.0835 52.6588 63 58C59.6886 62.3313 52.7353 66.9811 47 69C39.3037 71.7093 33 71 33 71C33 71 33.5 55.3405 33.5 36C33.5 16.6594 33 0.999971 33 0.999971C33 0.999971 45.8875 0.187874 55.5 7.5C63.7776 13.7967 68.8569 20.941 70 32Z" fill="#00FFF0"/>
<circle cx="34.7826" cy="35.8287" r="24.8447" fill="#161E88"/>
<path d="M23.1705 42.1591C22.3258 42.1591 21.5758 42.017 20.9205 41.733C20.2689 41.4489 19.7576 41.0606 19.3864 40.5682C19.0189 40.072 18.8371 39.5095 18.8409 38.8807C18.8371 38.392 18.9432 37.9432 19.1591 37.5341C19.375 37.125 19.6667 36.7841 20.0341 36.5114C20.4053 36.2348 20.8182 36.0587 21.2727 35.983V35.9034C20.6742 35.7708 20.1894 35.4659 19.8182 34.9886C19.4508 34.5076 19.2689 33.9527 19.2727 33.3239C19.2689 32.7254 19.4356 32.1913 19.7727 31.7216C20.1098 31.2519 20.572 30.8826 21.1591 30.6136C21.7462 30.3409 22.4167 30.2045 23.1705 30.2045C23.9167 30.2045 24.5814 30.3409 25.1648 30.6136C25.7519 30.8826 26.214 31.2519 26.5511 31.7216C26.892 32.1913 27.0625 32.7254 27.0625 33.3239C27.0625 33.9527 26.875 34.5076 26.5 34.9886C26.1288 35.4659 25.6496 35.7708 25.0625 35.9034V35.983C25.517 36.0587 25.9261 36.2348 26.2898 36.5114C26.6572 36.7841 26.9489 37.125 27.1648 37.5341C27.3845 37.9432 27.4943 38.392 27.4943 38.8807C27.4943 39.5095 27.3087 40.072 26.9375 40.5682C26.5663 41.0606 26.0549 41.4489 25.4034 41.733C24.7557 42.017 24.0114 42.1591 23.1705 42.1591ZM23.1705 40.5341C23.6061 40.5341 23.9848 40.4602 24.3068 40.3125C24.6288 40.161 24.8788 39.9489 25.0568 39.6761C25.2348 39.4034 25.3258 39.089 25.3295 38.733C25.3258 38.3617 25.2292 38.0341 25.0398 37.75C24.8542 37.4621 24.5985 37.2367 24.2727 37.0739C23.9508 36.911 23.5833 36.8295 23.1705 36.8295C22.7538 36.8295 22.3826 36.911 22.0568 37.0739C21.7311 37.2367 21.4735 37.4621 21.2841 37.75C21.0985 38.0341 21.0076 38.3617 21.0114 38.733C21.0076 39.089 21.0947 39.4034 21.2727 39.6761C21.4508 39.9451 21.7008 40.1553 22.0227 40.3068C22.3485 40.4583 22.7311 40.5341 23.1705 40.5341ZM23.1705 35.233C23.5265 35.233 23.8409 35.161 24.1136 35.017C24.3902 34.8731 24.608 34.6723 24.767 34.4148C24.9261 34.1572 25.0076 33.8598 25.0114 33.5227C25.0076 33.1894 24.928 32.8977 24.7727 32.6477C24.6174 32.3939 24.4015 32.1989 24.125 32.0625C23.8485 31.9223 23.5303 31.8523 23.1705 31.8523C22.803 31.8523 22.4792 31.9223 22.1989 32.0625C21.9223 32.1989 21.7064 32.3939 21.5511 32.6477C21.3996 32.8977 21.3258 33.1894 21.3295 33.5227C21.3258 33.8598 21.4015 34.1572 21.5568 34.4148C21.7159 34.6686 21.9337 34.8693 22.2102 35.017C22.4905 35.161 22.8106 35.233 23.1705 35.233ZM33.6634 42.2216C32.7277 42.2216 31.9247 41.9848 31.2543 41.5114C30.5876 41.0341 30.0743 40.3466 29.7145 39.4489C29.3584 38.5473 29.1804 37.4621 29.1804 36.1932C29.1842 34.9242 29.3641 33.8447 29.7202 32.9545C30.08 32.0606 30.5933 31.3788 31.2599 30.9091C31.9304 30.4394 32.7315 30.2045 33.6634 30.2045C34.5952 30.2045 35.3963 30.4394 36.0668 30.9091C36.7372 31.3788 37.2505 32.0606 37.6065 32.9545C37.9664 33.8485 38.1463 34.928 38.1463 36.1932C38.1463 37.4659 37.9664 38.553 37.6065 39.4545C37.2505 40.3523 36.7372 41.0379 36.0668 41.5114C35.4001 41.9848 34.599 42.2216 33.6634 42.2216ZM33.6634 40.4432C34.3906 40.4432 34.9645 40.0852 35.3849 39.3693C35.8092 38.6496 36.0213 37.5909 36.0213 36.1932C36.0213 35.2689 35.9247 34.4924 35.7315 33.8636C35.5384 33.2348 35.2656 32.7614 34.9134 32.4432C34.5611 32.1212 34.1444 31.9602 33.6634 31.9602C32.9399 31.9602 32.3679 32.3201 31.9474 33.0398C31.527 33.7557 31.3149 34.8068 31.3111 36.1932C31.3073 37.1212 31.4001 37.9015 31.5895 38.5341C31.7827 39.1667 32.0554 39.6439 32.4077 39.9659C32.7599 40.2841 33.1785 40.4432 33.6634 40.4432ZM46.2557 39.8182V39.2045C46.2557 38.7538 46.3504 38.339 46.5398 37.9602C46.733 37.5814 47.0133 37.2765 47.3807 37.0455C47.7481 36.8144 48.1932 36.6989 48.7159 36.6989C49.2538 36.6989 49.7045 36.8144 50.0682 37.0455C50.4318 37.2727 50.7064 37.5758 50.892 37.9545C51.0814 38.3333 51.1761 38.75 51.1761 39.2045V39.8182C51.1761 40.2689 51.0814 40.6837 50.892 41.0625C50.7027 41.4413 50.4242 41.7462 50.0568 41.9773C49.6932 42.2083 49.2462 42.3239 48.7159 42.3239C48.1856 42.3239 47.7367 42.2083 47.3693 41.9773C47.0019 41.7462 46.7235 41.4413 46.5341 41.0625C46.3485 40.6837 46.2557 40.2689 46.2557 39.8182ZM47.7386 39.2045V39.8182C47.7386 40.1174 47.8106 40.392 47.9545 40.642C48.0985 40.892 48.3523 41.017 48.7159 41.017C49.0833 41.017 49.3352 40.8939 49.4716 40.6477C49.6117 40.3977 49.6818 40.1212 49.6818 39.8182V39.2045C49.6818 38.9015 49.6155 38.625 49.483 38.375C49.3504 38.1212 49.0947 37.9943 48.7159 37.9943C48.3598 37.9943 48.108 38.1212 47.9602 38.375C47.8125 38.625 47.7386 38.9015 47.7386 39.2045ZM40.3409 33.1591V32.5455C40.3409 32.0909 40.4375 31.6742 40.6307 31.2955C40.8239 30.9167 41.1042 30.6136 41.4716 30.3864C41.839 30.1553 42.2841 30.0398 42.8068 30.0398C43.3409 30.0398 43.7898 30.1553 44.1534 30.3864C44.5208 30.6136 44.7973 30.9167 44.983 31.2955C45.1686 31.6742 45.2614 32.0909 45.2614 32.5455V33.1591C45.2614 33.6136 45.1667 34.0303 44.9773 34.4091C44.7917 34.7841 44.5152 35.0852 44.1477 35.3125C43.7803 35.5398 43.3333 35.6534 42.8068 35.6534C42.2727 35.6534 41.822 35.5398 41.4545 35.3125C41.0909 35.0852 40.8144 34.7822 40.625 34.4034C40.4356 34.0246 40.3409 33.6098 40.3409 33.1591ZM41.8352 32.5455V33.1591C41.8352 33.4621 41.9053 33.7386 42.0455 33.9886C42.1894 34.2348 42.4432 34.358 42.8068 34.358C43.1705 34.358 43.4205 34.2348 43.5568 33.9886C43.697 33.7386 43.767 33.4621 43.767 33.1591V32.5455C43.767 32.2424 43.7008 31.9659 43.5682 31.7159C43.4356 31.4621 43.1818 31.3352 42.8068 31.3352C42.447 31.3352 42.1951 31.4621 42.0511 31.7159C41.9072 31.9697 41.8352 32.2462 41.8352 32.5455ZM40.9886 42L48.9886 30.3636H50.4091L42.4091 42H40.9886Z" fill="white"/>
</svg>
