<svg width="71" height="72" viewBox="0 0 71 72" fill="none" xmlns="http://www.w3.org/2000/svg">
<circle cx="35.0191" cy="36.0653" r="35.0191" fill="#FB7F39"/>
<path d="M70 32C70.2811 34.7192 70.2984 37.0147 70 40C69.4353 45.6483 67.0835 52.6588 63 58C59.6886 62.3313 52.7353 66.9811 47 69C39.3037 71.7093 33 71 33 71C33 71 33.5 55.3405 33.5 36C33.5 16.6594 33 0.999971 33 0.999971C33 0.999971 45.8875 0.187874 55.5 7.5C63.7776 13.7967 68.8569 20.941 70 32Z" fill="#00FFF0"/>
<circle cx="34.7826" cy="35.8287" r="24.8447" fill="#161E88"/>
<path d="M23.0795 42.1591C22.322 42.1591 21.6439 42.017 21.0455 41.733C20.447 41.4451 19.9716 41.0511 19.6193 40.5511C19.2708 40.0511 19.0852 39.4792 19.0625 38.8352H21.108C21.1458 39.3125 21.3523 39.7027 21.7273 40.0057C22.1023 40.3049 22.553 40.4545 23.0795 40.4545C23.4924 40.4545 23.8598 40.3598 24.1818 40.1705C24.5038 39.9811 24.7576 39.7178 24.9432 39.3807C25.1288 39.0436 25.2197 38.6591 25.2159 38.2273C25.2197 37.7879 25.1269 37.3977 24.9375 37.0568C24.7481 36.7159 24.4886 36.4489 24.1591 36.2557C23.8295 36.0587 23.4508 35.9602 23.0227 35.9602C22.6742 35.9564 22.3314 36.0208 21.9943 36.1534C21.6572 36.286 21.3902 36.4602 21.1932 36.6761L19.2898 36.3636L19.8977 30.3636H26.6477V32.125H21.642L21.3068 35.2102H21.375C21.5909 34.9564 21.8958 34.7462 22.2898 34.5795C22.6837 34.4091 23.1155 34.3239 23.5852 34.3239C24.2898 34.3239 24.9186 34.4905 25.4716 34.8239C26.0246 35.1534 26.4602 35.608 26.7784 36.1875C27.0966 36.767 27.2557 37.4299 27.2557 38.1761C27.2557 38.9451 27.0777 39.6307 26.7216 40.233C26.3693 40.8314 25.8788 41.303 25.25 41.6477C24.625 41.9886 23.9015 42.1591 23.0795 42.1591ZM33.892 30.3636V42H31.7841V32.4148H31.7159L28.9943 34.1534V32.2216L31.8864 30.3636H33.892ZM43.0682 39.8182V39.2045C43.0682 38.7538 43.1629 38.339 43.3523 37.9602C43.5455 37.5814 43.8258 37.2765 44.1932 37.0455C44.5606 36.8144 45.0057 36.6989 45.5284 36.6989C46.0663 36.6989 46.517 36.8144 46.8807 37.0455C47.2443 37.2727 47.5189 37.5758 47.7045 37.9545C47.8939 38.3333 47.9886 38.75 47.9886 39.2045V39.8182C47.9886 40.2689 47.8939 40.6837 47.7045 41.0625C47.5152 41.4413 47.2367 41.7462 46.8693 41.9773C46.5057 42.2083 46.0587 42.3239 45.5284 42.3239C44.9981 42.3239 44.5492 42.2083 44.1818 41.9773C43.8144 41.7462 43.536 41.4413 43.3466 41.0625C43.161 40.6837 43.0682 40.2689 43.0682 39.8182ZM44.5511 39.2045V39.8182C44.5511 40.1174 44.6231 40.392 44.767 40.642C44.911 40.892 45.1648 41.017 45.5284 41.017C45.8958 41.017 46.1477 40.8939 46.2841 40.6477C46.4242 40.3977 46.4943 40.1212 46.4943 39.8182V39.2045C46.4943 38.9015 46.428 38.625 46.2955 38.375C46.1629 38.1212 45.9072 37.9943 45.5284 37.9943C45.1723 37.9943 44.9205 38.1212 44.7727 38.375C44.625 38.625 44.5511 38.9015 44.5511 39.2045ZM37.1534 33.1591V32.5455C37.1534 32.0909 37.25 31.6742 37.4432 31.2955C37.6364 30.9167 37.9167 30.6136 38.2841 30.3864C38.6515 30.1553 39.0966 30.0398 39.6193 30.0398C40.1534 30.0398 40.6023 30.1553 40.9659 30.3864C41.3333 30.6136 41.6098 30.9167 41.7955 31.2955C41.9811 31.6742 42.0739 32.0909 42.0739 32.5455V33.1591C42.0739 33.6136 41.9792 34.0303 41.7898 34.4091C41.6042 34.7841 41.3277 35.0852 40.9602 35.3125C40.5928 35.5398 40.1458 35.6534 39.6193 35.6534C39.0852 35.6534 38.6345 35.5398 38.267 35.3125C37.9034 35.0852 37.6269 34.7822 37.4375 34.4034C37.2481 34.0246 37.1534 33.6098 37.1534 33.1591ZM38.6477 32.5455V33.1591C38.6477 33.4621 38.7178 33.7386 38.858 33.9886C39.0019 34.2348 39.2557 34.358 39.6193 34.358C39.983 34.358 40.233 34.2348 40.3693 33.9886C40.5095 33.7386 40.5795 33.4621 40.5795 33.1591V32.5455C40.5795 32.2424 40.5133 31.9659 40.3807 31.7159C40.2481 31.4621 39.9943 31.3352 39.6193 31.3352C39.2595 31.3352 39.0076 31.4621 38.8636 31.7159C38.7197 31.9697 38.6477 32.2462 38.6477 32.5455ZM37.8011 42L45.8011 30.3636H47.2216L39.2216 42H37.8011Z" fill="white"/>
</svg>
