<svg width="25" height="37" viewBox="0 0 25 37" fill="none" xmlns="http://www.w3.org/2000/svg">
<path fill-rule="evenodd" clip-rule="evenodd" d="M12.029 0C12.1133 0.126164 12.2481 0.193593 12.4334 0.202186C12.6187 0.193593 12.7535 0.126164 12.8378 0C18.9308 0.618284 22.7218 3.88692 24.2107 9.80601C24.5853 12.3231 24.282 14.7494 23.3009 17.0847C22.9962 17.6271 22.6929 18.1663 22.391 18.7022C21.2129 20.0449 20.0335 21.3929 18.8528 22.7459C17.8926 24.1939 16.9828 25.6766 16.1233 27.194C15.4966 28.4475 14.9238 29.728 14.4047 31.0355C13.8608 32.582 13.3722 34.1322 12.9389 35.6858C12.7033 36.0713 12.5517 36.5094 12.4839 37C12.4124 36.9109 12.3281 36.8436 12.2312 36.7978C11.3625 33.3991 10.1663 30.1303 8.64241 26.9918C7.81739 25.5437 6.94122 24.1284 6.014 22.7459C4.87124 21.4342 3.72546 20.12 2.57684 18.8033C2.26669 18.217 1.92974 17.6441 1.56591 17.0847C1.41619 16.4956 1.214 15.9227 0.959352 15.3661C0.888991 15.0651 0.838445 14.7618 0.807713 14.4563C0.862606 14.4502 0.89627 14.4166 0.908805 14.3552C0.773038 13.4327 0.638281 12.5229 0.504434 11.6257C0.487046 11.5254 0.520811 11.4581 0.605527 11.4235C0.73068 10.2345 0.966529 9.05509 1.31318 7.88525C1.96583 5.96913 3.04419 4.33476 4.54815 2.98224C5.08728 2.57787 5.62651 2.1735 6.16564 1.76913C7.98571 0.786604 9.94014 0.196929 12.029 0Z" fill="white"/>
</svg>
