<svg width="39" height="39" viewBox="0 0 39 39" fill="none" xmlns="http://www.w3.org/2000/svg">
<g clip-path="url(#clip0_47_1319)">
<path opacity="0.964" fill-rule="evenodd" clip-rule="evenodd" d="M22.2802 -0.0380859C22.9404 -0.0380859 23.6005 -0.0380859 24.2606 -0.0380859C30.2843 0.769168 34.6388 3.89222 37.3241 9.33105C38.3485 11.6091 38.8055 13.9958 38.6952 16.4912C38.581 16.9102 38.3144 17.1768 37.8954 17.291C35.0264 17.3291 32.1572 17.3418 29.288 17.3291C29.5623 18.1723 29.74 19.0356 29.8212 19.9189C32.4366 19.9062 35.0518 19.9189 37.6669 19.957C38.4524 20.2193 38.7571 20.7652 38.581 21.5947C38.3488 26.1863 36.3937 29.8299 32.7157 32.5254C32.121 32.7419 31.6259 32.6022 31.2304 32.1064C30.164 30.7354 29.0976 29.3643 28.0312 27.9932C27.4556 28.8357 26.8081 29.6228 26.0888 30.3545C26.9501 31.5079 27.8261 32.6505 28.7167 33.7822C28.9654 34.2371 28.9654 34.6942 28.7167 35.1533C25.9837 37.3384 22.8734 38.6079 19.3856 38.9619C18.3192 38.9619 17.2528 38.9619 16.1864 38.9619C9.68508 38.1563 4.92437 34.8556 1.9042 29.0596C-0.402686 23.8935 -0.377296 18.7393 1.98037 13.5967C5.22898 7.52687 10.3071 4.27688 17.2147 3.84668C17.9492 3.67612 18.5078 3.90463 18.8905 4.53223C18.9159 6.10645 18.9413 7.68064 18.9667 9.25488C19.8265 9.37866 20.6771 9.55637 21.5185 9.78809C21.5057 6.76649 21.5185 3.74501 21.5565 0.723633C21.7106 0.379339 21.9518 0.125432 22.2802 -0.0380859ZM23.8798 2.32324C29.2633 3.03933 33.0846 5.85769 35.3437 10.7783C35.8894 12.1236 36.2068 13.5201 36.2958 14.9678C33.5532 14.9931 30.811 14.9678 28.0692 14.8916C26.9975 13.2232 25.6138 11.8775 23.9179 10.8545C23.8798 8.01084 23.8671 5.1671 23.8798 2.32324ZM16.4911 6.20801C16.567 7.23555 16.5923 8.27653 16.5673 9.33105C11.9405 9.89846 8.62698 12.2852 6.62686 16.4912C4.81019 21.1548 5.44496 25.4457 8.53115 29.3643C12.2235 33.2603 16.6542 34.441 21.8231 32.9062C22.6264 32.6177 23.3881 32.2496 24.1083 31.8018C24.7697 32.5778 25.4045 33.3776 26.0126 34.2012C21.7889 36.792 17.3201 37.2998 12.6063 35.7246C7.72122 33.7847 4.5347 30.2936 3.04678 25.251C1.69699 18.9664 3.43625 13.7233 8.26455 9.52148C10.6933 7.6341 13.4355 6.52961 16.4911 6.20801ZM16.7958 11.6162C21.0566 11.4417 24.2685 13.1683 26.4315 16.7959C28.1668 20.4234 27.9129 23.9019 25.6698 27.2314C22.8421 30.6961 19.2493 31.8768 14.8915 30.7734C11.888 29.7758 9.79325 27.8081 8.60733 24.8701C7.28556 20.7757 8.13613 17.2083 11.1591 14.168C12.7851 12.7583 14.6641 11.9076 16.7958 11.6162ZM29.8974 22.2803C31.9794 22.2803 34.0615 22.2803 36.1435 22.2803C35.8245 25.2287 34.5931 27.717 32.4491 29.7451C31.3554 28.3595 30.2763 26.963 29.2118 25.5557C29.6212 24.5021 29.8497 23.4104 29.8974 22.2803Z" fill="#F4F4F4"/>
<path opacity="0.963" fill-rule="evenodd" clip-rule="evenodd" d="M17.4053 13.6728C18.0975 13.5555 18.5926 13.8094 18.8907 14.4346C18.9287 14.8909 18.9414 15.3479 18.9288 15.8057C20.2337 15.8295 21.262 16.3627 22.0137 17.4053C22.2049 18.3424 21.8368 18.901 20.9092 19.0811C20.4387 19.0235 20.0579 18.8077 19.7667 18.4336C19.5978 18.3365 19.42 18.2603 19.2335 18.2051C18.2686 18.1543 17.3038 18.1543 16.3389 18.2051C15.6423 18.4432 15.401 18.9129 15.6153 19.6143C15.7669 19.9182 16.0081 20.1086 16.3389 20.1855C17.4053 20.2109 18.4717 20.2364 19.5381 20.2617C21.319 20.6716 22.2838 21.7888 22.4327 23.6133C22.3408 25.2792 21.5029 26.3709 19.919 26.8887C19.5938 26.9706 19.2637 27.0086 18.9288 27.0029C18.958 27.5429 18.9199 28.0761 18.8145 28.6025C18.3738 29.1359 17.8279 29.2755 17.1768 29.0215C16.8663 28.8116 16.6758 28.5197 16.6055 28.1455C16.5675 27.7655 16.5548 27.3846 16.5674 27.0029C15.5694 27.0384 14.6934 26.7337 13.9395 26.0889C13.5501 25.4674 13.6136 24.8961 14.1299 24.375C14.369 24.2434 14.6229 24.1546 14.8917 24.1084C15.3197 24.2188 15.7259 24.3838 16.1104 24.6035C17.1515 24.6543 18.1924 24.6543 19.2335 24.6035C20.032 24.2648 20.2225 23.7189 19.8047 22.9658C19.6328 22.8188 19.4423 22.7045 19.2335 22.623C18.1671 22.5977 17.1006 22.5722 16.0342 22.5469C14.0412 22.0774 13.0891 20.8206 13.1778 18.7764C13.3601 17.503 14.033 16.6017 15.1963 16.0723C15.6376 15.9002 16.0946 15.8114 16.5674 15.8057C16.5433 15.3175 16.5814 14.835 16.6817 14.3584C16.865 14.0607 17.1061 13.8322 17.4053 13.6728Z" fill="#F4F4F4"/>
</g>
<defs>
<clipPath id="clip0_47_1319">
<rect width="39" height="39" fill="white"/>
</clipPath>
</defs>
</svg>
