<svg width="36" height="34" viewBox="0 0 36 34" fill="none" xmlns="http://www.w3.org/2000/svg">
<path opacity="0.953" fill-rule="evenodd" clip-rule="evenodd" d="M7.02638 0.0226426C9.16837 -0.162243 10.471 0.785121 10.9343 2.86473C11.0217 4.77708 10.1401 5.97444 8.28954 6.45682C6.83904 6.61156 5.69431 6.09839 4.85534 4.91736C4.23205 3.65908 4.311 2.44856 5.09218 1.28579C5.60715 0.649971 6.25191 0.228915 7.02638 0.0226426Z" fill="white"/>
<path opacity="0.945" fill-rule="evenodd" clip-rule="evenodd" d="M13.5791 1.36477C14.001 1.35166 14.422 1.36482 14.8423 1.40424C16.6184 1.98848 17.3421 3.21216 17.0133 5.07528C16.8436 5.41295 16.6857 5.75505 16.5396 6.10159C16.2635 6.30181 16.0135 6.52549 15.7896 6.77264C14.309 7.52579 12.9932 7.30214 11.8423 6.10159C11.7356 5.85966 11.6172 5.62282 11.487 5.39107C11.4194 5.15024 11.472 4.93971 11.6449 4.75949C11.801 4.00538 11.88 3.24222 11.8818 2.47003C12.1054 2.24635 12.3292 2.02266 12.5528 1.79898C12.9028 1.64968 13.2449 1.50495 13.5791 1.36477Z" fill="white"/>
<path opacity="0.946" fill-rule="evenodd" clip-rule="evenodd" d="M19.9738 2.54898C21.1228 2.40077 22.057 2.76919 22.7764 3.65424C23.4894 5.0349 23.3183 6.2849 22.2632 7.40422C21.4331 7.96356 20.5384 8.09516 19.579 7.79895C19.2982 7.60964 19.0088 7.43856 18.7106 7.2858C18.4716 6.98098 18.2479 6.6652 18.0396 6.33843C17.9237 5.57381 17.95 4.81065 18.1185 4.04897C18.5229 3.27561 19.1413 2.77562 19.9738 2.54898Z" fill="white"/>
<path opacity="0.938" fill-rule="evenodd" clip-rule="evenodd" d="M25.2633 3.57529C26.9377 3.28602 28.0035 3.94392 28.4606 5.54897C28.5745 6.97341 27.9561 7.90759 26.6054 8.35159C25.1998 8.53419 24.2261 7.98156 23.6843 6.6937C23.9477 5.99521 24.0661 5.27153 24.0396 4.52266C24.3718 4.09701 24.7797 3.78122 25.2633 3.57529Z" fill="white"/>
<path opacity="0.928" fill-rule="evenodd" clip-rule="evenodd" d="M30.4738 5.23319C32.039 5.08062 32.9337 5.77798 33.158 7.32528C32.851 9.02596 31.8509 9.6839 30.158 9.29896C28.8573 8.55235 28.5547 7.51286 29.2501 6.18055C29.3917 5.95987 29.5627 5.7625 29.7633 5.58845C30.0256 5.50635 30.2624 5.38793 30.4738 5.23319Z" fill="white"/>
<path opacity="0.965" fill-rule="evenodd" clip-rule="evenodd" d="M4.50015 7.12775C6.63187 7.11456 8.76344 7.12775 10.8949 7.16722C11.1101 7.30048 11.3337 7.4189 11.5659 7.52248C11.9238 8.2278 12.1869 8.96461 12.3554 9.733C13.4029 12.5338 14.4029 15.3495 15.3554 18.1803C15.4775 18.8271 15.2801 19.3535 14.7633 19.7593C13.876 20.1789 13.1787 19.9684 12.6712 19.1277C12.4183 18.2112 12.1025 17.3165 11.7238 16.4435C11.6975 21.5224 11.6711 26.6014 11.6448 31.6803C11.2234 32.9239 10.3944 33.3318 9.15802 32.9039C9.00763 32.7563 8.83655 32.6379 8.64486 32.5487C8.55494 32.3053 8.44971 32.0684 8.32908 31.8382C8.30279 28.4434 8.27642 25.0487 8.25013 21.654C7.90174 21.5646 7.54647 21.5514 7.18434 21.6145C7.14827 21.6472 7.1219 21.6867 7.1054 21.7329C7.09411 23.7485 7.12048 25.7617 7.18434 27.7724C7.12119 29.1523 7.08171 30.5339 7.06592 31.9171C6.33511 33.2491 5.36138 33.4597 4.14488 32.5487C3.94641 32.2309 3.81481 31.8888 3.75015 31.5224C3.72386 26.4698 3.69749 21.4172 3.6712 16.3645C3.35439 17.3809 2.99913 18.3809 2.60542 19.3645C1.90405 20.1381 1.15406 20.1908 0.355428 19.5224C0.0393243 19.1261 -0.065912 18.6787 0.0396401 18.1803C1.12429 14.9526 2.25592 11.7421 3.43436 8.54879C3.50352 7.86117 3.85878 7.38748 4.50015 7.12775Z" fill="white"/>
<path opacity="0.95" fill-rule="evenodd" clip-rule="evenodd" d="M12.8687 7.83838C14.3102 7.90312 15.7576 7.94259 17.2107 7.9568C17.4702 8.00543 17.694 8.12385 17.8818 8.31206C19.056 11.4754 20.1612 14.6596 21.1976 17.8646C21.2585 19.1975 20.6401 19.6844 19.3423 19.3252C19.0848 19.1205 18.8874 18.8705 18.7502 18.5752C18.4878 17.7868 18.2247 16.9973 17.9607 16.2068C17.9344 20.8383 17.9081 25.4699 17.8818 30.1014C17.4544 31.2269 16.6782 31.5559 15.5529 31.0883C15.2355 30.8506 15.0118 30.548 14.8818 30.1804C14.8681 27.0718 14.8287 23.9666 14.7634 20.8646C14.9009 20.6817 15.0852 20.5633 15.316 20.5094C16.1048 19.8728 16.4074 19.0439 16.2239 18.0225C15.3094 15.3446 14.4147 12.6604 13.5397 9.96995C13.1814 9.29969 12.9578 8.58916 12.8687 7.83838Z" fill="white"/>
<path opacity="0.961" fill-rule="evenodd" clip-rule="evenodd" d="M18.9474 8.23297C20.2635 8.21979 21.5793 8.23297 22.8948 8.27245C23.545 8.34334 23.9528 8.6986 24.1185 9.33823C25.0127 11.9164 25.9074 14.4954 26.8026 17.075C27.1381 18.608 26.546 19.1738 25.0263 18.7724C24.5966 18.1681 24.3203 17.4971 24.1974 16.7592C24.0705 16.5317 23.9652 16.2949 23.8816 16.0487C23.8553 16.075 23.829 16.1014 23.8027 16.1277C23.7375 20.1694 23.7506 24.2088 23.8421 28.246C23.7837 28.5761 23.7179 28.9051 23.6448 29.2329C22.9072 30.008 22.1177 30.0606 21.2764 29.3908C21.1995 29.2414 21.1469 29.0835 21.1185 28.9171C21.079 26.0752 21.0658 23.2331 21.079 20.3908C20.8953 20.4108 20.7374 20.3581 20.6053 20.2329C21.6664 19.8015 22.1532 19.012 22.0658 17.8645C21.9181 17.395 21.7865 16.9213 21.6711 16.4435C20.75 13.8645 19.829 11.2856 18.9079 8.70665C18.8544 8.54102 18.8676 8.38313 18.9474 8.23297Z" fill="white"/>
<path opacity="0.937" fill-rule="evenodd" clip-rule="evenodd" d="M24.7896 8.78571C25.8688 8.77252 26.9477 8.78571 28.0264 8.82518C28.4889 8.82629 28.8442 9.02365 29.0922 9.41728C30.002 11.9625 30.8967 14.5151 31.7764 17.0751C31.9135 17.7187 31.6898 18.1792 31.1053 18.4567C30.4636 18.6029 30.0031 18.3793 29.7237 17.7857C29.4967 17.0973 29.2598 16.4131 29.0132 15.733C28.9869 19.6277 28.9606 23.5225 28.9343 27.4172C28.8623 27.8191 28.6387 28.0954 28.2632 28.2461C27.3901 28.5263 26.798 28.25 26.4869 27.4172C26.4474 24.7857 26.4343 22.1542 26.4474 19.5225C27.2379 19.2436 27.659 18.6778 27.7106 17.8251C27.6481 17.3842 27.556 16.95 27.4343 16.5225C26.6155 14.3515 25.826 12.1673 25.0659 9.96991C24.9584 9.57739 24.8664 9.18265 24.7896 8.78571Z" fill="white"/>
<path opacity="0.931" fill-rule="evenodd" clip-rule="evenodd" d="M30 9.81226C31.1018 9.84968 32.207 9.88915 33.3158 9.93068C33.4079 10.0228 33.5 10.1149 33.5921 10.207C34.4811 12.5188 35.2838 14.8609 36 17.2333C35.872 18.1 35.3983 18.3763 34.5789 18.0622C34.4052 17.8859 34.2605 17.6885 34.1447 17.4701C33.9363 16.9225 33.752 16.3699 33.5921 15.8122C33.5658 19.207 33.5394 22.6017 33.5131 25.9964C32.943 26.8407 32.2851 26.9197 31.5395 26.2332C31.4714 26.1079 31.4188 25.9763 31.3816 25.8385C31.3158 23.5749 31.3289 21.3118 31.421 19.0491C32.2067 18.6197 32.562 17.9619 32.4868 17.0754C31.6528 14.654 30.8239 12.233 30 9.81226Z" fill="white"/>
<path opacity="0.819" fill-rule="evenodd" clip-rule="evenodd" d="M29.7632 18.8909C30.0421 18.9882 30.3184 19.0935 30.5922 19.2067C30.6448 21.4698 30.6448 23.7329 30.5922 25.9961C30.4197 26.2796 30.1828 26.4901 29.8817 26.6277C29.8207 26.6162 29.768 26.5899 29.7238 26.5487C29.6586 23.9905 29.6717 21.4379 29.7632 18.8909Z" fill="white"/>
<path opacity="0.867" fill-rule="evenodd" clip-rule="evenodd" d="M24.6317 19.4434C24.9167 19.5321 25.2061 19.611 25.5001 19.6802C25.5922 22.3113 25.6054 24.943 25.5396 27.5749C25.3502 27.896 25.0871 28.1328 24.7501 28.2854C24.6892 28.274 24.6365 28.2477 24.5922 28.2065C24.527 25.2798 24.5401 22.3588 24.6317 19.4434Z" fill="white"/>
<path opacity="0.885" fill-rule="evenodd" clip-rule="evenodd" d="M18.7108 19.9961C19.1503 20.123 19.5976 20.2283 20.0529 20.3119C20.066 23.1278 20.0529 25.9436 20.0134 28.7592C19.916 29.3698 19.5608 29.7382 18.9476 29.8645C18.8732 29.8559 18.8075 29.8297 18.7502 29.7855C18.7108 26.5225 18.6976 23.2594 18.7108 19.9961Z" fill="white"/>
<path opacity="0.877" fill-rule="evenodd" clip-rule="evenodd" d="M12.5527 20.5488C12.9694 20.6702 13.3905 20.7754 13.8159 20.8646C13.8291 23.9436 13.8159 27.0226 13.7764 30.1014C13.6014 30.7373 13.1935 31.1058 12.5527 31.2067C12.5527 27.6541 12.5527 24.1014 12.5527 20.5488Z" fill="white"/>
</svg>
